<svg width="283" height="283" viewBox="0 0 283 283" fill="none" xmlns="http://www.w3.org/2000/svg">
<rect width="283" height="283" fill="white"/>
<path fill-rule="evenodd" clip-rule="evenodd" d="M11 26C11 17.1634 18.1634 10 27 10H257C265.837 10 273 17.1634 273 26V223.701L233 131.018V66.0116L233.013 65.9988L233 65.986V64V27H196L46 27V52V64V272H27C18.1634 272 11 264.837 11 256V26ZM196.146 139L253.546 272H196L153.172 151H116V266.014L110.014 272H87.014L83 267.986V70.0269L89.0269 64L190.986 64L196 69.0141L196 138.661L196 139H196.146ZM156 118.5C156 130.926 145.926 141 133.5 141C121.074 141 111 130.926 111 118.5C111 106.074 121.074 96 133.5 96C145.926 96 156 106.074 156 118.5Z" fill="#3874CB"/>
</svg>
